<svg xmlns="http://www.w3.org/2000/svg" width="1080" height="1080" viewBox="0 0 1080 1080" role="img" aria-labelledby="title description">
  <title id="title">Casa de Perla</title>
  <description id="description">Logo Casa de Perla avec une maison arquée et une perle dorée.</description>
  <defs>
    <radialGradient id="background" cx="50%" cy="42%" r="72%">
      <stop offset="0" stop-color="#3b3437" />
      <stop offset="1" stop-color="#292426" />
    </radialGradient>
    <radialGradient id="pearl" cx="34%" cy="28%" r="72%">
      <stop offset="0" stop-color="#fff8e8" />
      <stop offset="0.36" stop-color="#ead5aa" />
      <stop offset="1" stop-color="#b8893d" />
    </radialGradient>
    <filter id="shadow" x="-40%" y="-40%" width="180%" height="180%">
      <feDropShadow dx="0" dy="16" stdDeviation="18" flood-color="#000" flood-opacity=".24" />
    </filter>
  </defs>

  <rect width="1080" height="1080" fill="url(#background)" />
  <circle cx="540" cy="540" r="458" fill="none" stroke="#c79a4a" stroke-opacity=".2" stroke-width="2" />
  <circle cx="540" cy="540" r="428" fill="none" stroke="#f7efe1" stroke-opacity=".07" stroke-width="1" />

  <g filter="url(#shadow)">
    <path d="M329 428 540 238l211 190" fill="none" stroke="#f7efe1" stroke-width="13" stroke-linecap="round" stroke-linejoin="round" />
    <path d="M374 407v249h332V407" fill="none" stroke="#f7efe1" stroke-opacity=".58" stroke-width="8" />
    <path d="M437 656V490c0-98 51-161 103-196 52 35 103 98 103 196v166" fill="none" stroke="#f7efe1" stroke-width="9" />
    <circle cx="540" cy="510" r="69" fill="url(#pearl)" stroke="#d1a456" stroke-width="9" />
    <circle cx="516" cy="484" r="17" fill="#fff" fill-opacity=".72" />
    <path d="M466 632h148" stroke="#c79a4a" stroke-width="10" stroke-linecap="round" />
  </g>

  <text x="540" y="788" fill="#f7efe1" text-anchor="middle" font-family="Georgia, 'Times New Roman', serif" font-size="68" font-weight="700" letter-spacing="-2">Casa de <tspan fill="#c79a4a">Perla</tspan></text>
  <path d="M378 838h324" stroke="#c79a4a" stroke-opacity=".55" stroke-width="2" />
  <text x="540" y="884" fill="#f7efe1" fill-opacity=".68" text-anchor="middle" font-family="Arial, sans-serif" font-size="20" font-weight="700" letter-spacing="10">BIJOUX ARTISANAUX</text>
</svg>
